<svg width="23" height="22" viewBox="0 0 23 22" fill="none" xmlns="http://www.w3.org/2000/svg">
<path d="M13.5815 11.5563H8.60323C8.41218 11.5563 8.2561 11.7113 8.2561 11.901V21.4436H13.934V11.901C13.9313 11.7113 13.7752 11.5563 13.5815 11.5563Z" fill="#AAAAAA"/>
<path d="M13.5815 11.1556C12.5347 11.1556 11.488 11.1556 10.4385 11.1556C9.88956 11.1556 9.3433 11.1556 8.79434 11.1556C8.58714 11.1556 8.38801 11.1529 8.20234 11.2705C7.95208 11.4282 7.84983 11.6901 7.84983 11.9707C7.84983 12.8632 7.84983 13.7557 7.84983 14.6509C7.84983 16.0565 7.84983 17.4621 7.84983 18.8677C7.84983 19.7121 7.83368 20.5592 7.84983 21.4064C7.84983 21.4197 7.84983 21.4331 7.84983 21.4464C7.84983 21.6629 8.0355 21.8473 8.25347 21.8473C8.8966 21.8473 9.53704 21.8473 10.1802 21.8473C11.1947 21.8473 12.2091 21.8473 13.2236 21.8473C13.4604 21.8473 13.6945 21.8473 13.9313 21.8473C14.1493 21.8473 14.335 21.6629 14.335 21.4464C14.335 21.1044 14.335 20.765 14.335 20.423C14.335 19.6133 14.335 18.8036 14.335 17.9939C14.335 17.0426 14.335 16.0886 14.335 15.1373C14.335 14.3516 14.335 13.5687 14.335 12.783C14.335 12.5559 14.335 12.3287 14.335 12.1016C14.335 11.8878 14.3404 11.682 14.2112 11.495C14.0632 11.2785 13.8398 11.169 13.5815 11.1556C13.3716 11.1449 13.1671 11.348 13.1779 11.5565C13.1886 11.7836 13.3555 11.9466 13.5815 11.9573C13.5734 11.9573 13.5196 11.9386 13.56 11.9546C13.6057 11.9707 13.5465 11.9466 13.5438 11.9439C13.6246 12.0054 13.4927 11.8851 13.5304 11.9252C13.5627 11.9573 13.5169 11.9172 13.525 11.9065C13.5304 11.8985 13.5196 11.9787 13.5304 11.9226C13.5304 11.9172 13.5277 11.8985 13.5277 11.9065C13.5277 11.9145 13.5277 11.9226 13.5277 11.9306C13.5223 11.9813 13.5277 12.0321 13.5277 12.0829C13.5277 12.2967 13.5277 12.5078 13.5277 12.7216C13.5277 13.4725 13.5277 14.2234 13.5277 14.9743C13.5277 15.9069 13.5277 16.8422 13.5277 17.7748C13.5277 18.5925 13.5277 19.4075 13.5277 20.2252C13.5277 20.6234 13.5035 21.0296 13.5277 21.4277C13.5277 21.4331 13.5277 21.4384 13.5277 21.4464C13.6622 21.3128 13.7968 21.1792 13.9313 21.0456C13.2882 21.0456 12.6478 21.0456 12.0046 21.0456C10.9901 21.0456 9.97566 21.0456 8.96118 21.0456C8.72438 21.0456 8.49027 21.0456 8.25347 21.0456C8.38801 21.1792 8.52256 21.3128 8.65711 21.4464C8.65711 20.757 8.65711 20.0702 8.65711 19.3808C8.65711 18.0046 8.65711 16.6284 8.65711 15.2522C8.65711 14.2234 8.65711 13.1945 8.65711 12.1657C8.65711 12.0909 8.67325 11.9947 8.65711 11.9199C8.65711 11.9145 8.65711 11.9092 8.65711 11.9038C8.65711 11.8985 8.64903 11.9386 8.64903 11.9386C8.65173 11.9279 8.65442 11.9172 8.65711 11.9065C8.63558 11.9493 8.63827 11.9519 8.6598 11.9119C8.64634 11.9279 8.571 11.9947 8.63827 11.9439C8.62751 11.9493 8.61674 11.9546 8.60329 11.9573C8.61405 11.9546 8.62482 11.9519 8.63558 11.9493C8.58176 12.0188 8.58714 11.9546 8.59791 11.9573C8.6006 11.9573 8.60329 11.9573 8.60598 11.9573C8.62213 11.9573 8.63558 11.9573 8.65173 11.9573C9.10111 11.9707 9.55588 11.9573 10.0053 11.9573C11.1704 11.9573 12.3383 11.9573 13.5035 11.9573C13.5277 11.9573 13.5519 11.9573 13.5761 11.9573C13.786 11.9573 13.9905 11.7729 13.9798 11.5565C13.9771 11.3373 13.8102 11.1556 13.5815 11.1556Z" fill="#AAAAAA"/>
<path d="M6.36984 14.228H0.756554C0.565498 14.228 0.409424 14.383 0.409424 14.5727V21.4431H6.36984V14.228Z" fill="#AAAAAA"/>
<path d="M6.37004 13.8274C5.57352 13.8274 4.77701 13.8274 3.98049 13.8274C2.96062 13.8274 1.93807 13.8274 0.918206 13.8274C0.794423 13.8274 0.67064 13.8247 0.546857 13.8568C0.202418 13.9503 0.00867079 14.2736 0.00597985 14.613C0.00328892 14.8963 0.00597985 15.1795 0.00597985 15.4628C0.00597985 16.6199 0.00597985 17.7743 0.00597985 18.9314C0.00597985 19.7544 -0.00747482 20.5775 0.00597985 21.4005C0.00597985 21.4139 0.00597985 21.4272 0.00597985 21.4406C0.00597985 21.6571 0.191654 21.8414 0.40962 21.8414C1.08235 21.8414 1.7524 21.8414 2.42513 21.8414C3.49612 21.8414 4.56442 21.8414 5.63541 21.8414C5.88029 21.8414 6.12516 21.8414 6.37004 21.8414C6.588 21.8414 6.77368 21.6571 6.77368 21.4406C6.77368 20.6282 6.77368 19.8159 6.77368 19.0035C6.77368 17.7075 6.77368 16.4141 6.77368 15.1181C6.77368 14.8214 6.77368 14.5222 6.77368 14.2255C6.77368 14.0171 6.588 13.8167 6.37004 13.8274C6.15207 13.8381 5.9664 14.0037 5.9664 14.2282C5.9664 15.0406 5.9664 15.8529 5.9664 16.6653C5.9664 17.9613 5.9664 19.2547 5.9664 20.5507C5.9664 20.8474 5.9664 21.1467 5.9664 21.4433C6.10094 21.3097 6.23549 21.1761 6.37004 21.0424C5.6973 21.0424 5.02726 21.0424 4.35453 21.0424C3.28354 21.0424 2.21524 21.0424 1.14424 21.0424C0.89937 21.0424 0.654495 21.0424 0.40962 21.0424C0.544167 21.1761 0.678713 21.3097 0.81326 21.4433C0.81326 20.7699 0.81326 20.0965 0.81326 19.4257C0.81326 18.2526 0.81326 17.0822 0.81326 15.9091C0.81326 15.5323 0.81326 15.1582 0.81326 14.7814C0.81326 14.7146 0.818642 14.6451 0.81326 14.5783C0.81326 14.5756 0.81326 14.5756 0.81326 14.5729C0.81326 14.5622 1.11464 14.3511 0.805187 14.6103C0.807878 14.605 0.807878 14.5997 0.810569 14.5943C0.818642 14.5649 0.815951 14.5729 0.799805 14.6103C0.853624 14.5355 0.719077 14.6691 0.794423 14.6157C0.708314 14.6771 0.797114 14.6157 0.794423 14.621C0.732532 14.6932 0.745987 14.6264 0.75675 14.629C0.775587 14.6317 0.797114 14.629 0.815951 14.629C1.74163 14.629 2.66462 14.629 3.5903 14.629C4.49984 14.629 5.41207 14.6397 6.3216 14.629C6.33775 14.629 6.35389 14.629 6.37004 14.629C6.57993 14.629 6.78444 14.4447 6.77368 14.2282C6.76291 14.0091 6.59608 13.8274 6.37004 13.8274Z" fill="#AAAAAA"/>
<path d="M21.428 16.366H15.8147V21.4433H21.7751V16.7107C21.7751 16.521 21.619 16.366 21.428 16.366Z" fill="#AAAAAA"/>
<path d="M21.4277 15.9658C20.7953 15.9658 20.1656 15.9658 19.5333 15.9658C18.5269 15.9658 17.5205 15.9658 16.5114 15.9658C16.2799 15.9658 16.0458 15.9658 15.8144 15.9658C15.5964 15.9658 15.4108 16.1502 15.4108 16.3666C15.4108 16.9358 15.4108 17.5077 15.4108 18.0769C15.4108 18.9908 15.4108 19.9047 15.4108 20.8186C15.4108 21.027 15.4108 21.2355 15.4108 21.4439C15.4108 21.6604 15.5964 21.8447 15.8144 21.8447C16.4871 21.8447 17.1572 21.8447 17.8299 21.8447C18.9009 21.8447 19.9692 21.8447 21.0402 21.8447C21.2851 21.8447 21.5299 21.8447 21.7748 21.8447C21.9928 21.8447 22.1785 21.6604 22.1785 21.4439C22.1785 20.8373 22.1785 20.228 22.1785 19.6214C22.1785 18.7556 22.1785 17.8898 22.1785 17.024C22.1785 16.9278 22.1812 16.8316 22.1785 16.7327C22.1704 16.3052 21.8556 15.9872 21.4277 15.9658C21.2178 15.9551 21.0133 16.1582 21.0241 16.3666C21.0348 16.5938 21.2017 16.7568 21.4277 16.7675C21.4196 16.7675 21.3658 16.7488 21.4062 16.7648C21.4519 16.7808 21.3927 16.7568 21.39 16.7541C21.4707 16.8156 21.3389 16.6953 21.3766 16.7354C21.4089 16.7675 21.3631 16.7274 21.3712 16.7167C21.3766 16.7087 21.3658 16.7888 21.3766 16.7327C21.3793 16.7194 21.3739 16.7087 21.3739 16.7167C21.3739 16.7354 21.3739 16.7514 21.3739 16.7701C21.3739 16.8663 21.3739 16.9625 21.3739 17.0614C21.3739 17.4275 21.3739 17.7909 21.3739 18.157C21.3739 19.0442 21.3739 19.9287 21.3739 20.8159C21.3739 21.027 21.3739 21.2381 21.3739 21.4492C21.5084 21.3156 21.643 21.182 21.7775 21.0484C21.1048 21.0484 20.4347 21.0484 19.762 21.0484C18.691 21.0484 17.6227 21.0484 16.5517 21.0484C16.3068 21.0484 16.062 21.0484 15.8171 21.0484C15.9516 21.182 16.0862 21.3156 16.2207 21.4492C16.2207 20.8801 16.2207 20.3082 16.2207 19.739C16.2207 18.8251 16.2207 17.9112 16.2207 16.9973C16.2207 16.7888 16.2207 16.5804 16.2207 16.372C16.0862 16.5056 15.9516 16.6392 15.8171 16.7728C16.4495 16.7728 17.0791 16.7728 17.7115 16.7728C18.7179 16.7728 19.7243 16.7728 20.7334 16.7728C20.9649 16.7728 21.199 16.7728 21.4304 16.7728C21.6403 16.7728 21.8448 16.5884 21.834 16.372C21.8206 16.1475 21.6537 15.9658 21.4277 15.9658Z" fill="#AAAAAA"/>
<path d="M11.0921 0.402039L9.86235 3.48047L6.48792 3.78243L9.10081 5.91756L8.3339 9.14563L11.0921 7.38729L13.8503 9.14563L13.0834 5.91756L15.6963 3.78243L12.3219 3.48047L11.0921 0.402039Z" fill="#AAAAAA"/>
<path d="M10.7017 0.295081C10.3411 1.19296 9.98322 2.09083 9.62264 2.98871C9.57151 3.11697 9.52038 3.24257 9.46925 3.37084C9.59842 3.27196 9.72758 3.17576 9.85944 3.07689C8.87725 3.16507 7.89506 3.25326 6.91287 3.34144C6.77025 3.3548 6.63032 3.36549 6.4877 3.37885C6.32624 3.39221 6.18362 3.46704 6.11904 3.6247C6.06253 3.76098 6.07868 3.9614 6.20246 4.06295C6.96399 4.68558 7.72553 5.30554 8.48706 5.92818C8.59739 6.01903 8.70772 6.10722 8.81805 6.19807C8.78307 6.06713 8.74808 5.93886 8.7131 5.80792C8.48975 6.75123 8.26372 7.69453 8.04037 8.63783C8.00808 8.77145 7.97848 8.90238 7.94619 9.036C7.86815 9.35934 8.23142 9.68535 8.53819 9.48761C9.34278 8.97453 10.1474 8.46146 10.9493 7.94839C11.065 7.87624 11.1807 7.80142 11.2937 7.72927C11.1592 7.72927 11.0219 7.72927 10.8874 7.72927C11.692 8.24234 12.4966 8.75541 13.2985 9.26848C13.4142 9.34063 13.5299 9.41546 13.6429 9.48761C13.9523 9.68535 14.3129 9.35934 14.2349 9.036C14.0115 8.09269 13.7855 7.14939 13.5622 6.20609C13.5299 6.07248 13.5003 5.94154 13.468 5.80792C13.433 5.93886 13.398 6.06713 13.363 6.19807C14.1246 5.57544 14.8861 4.95548 15.6476 4.33284C15.758 4.24199 15.8683 4.1538 15.9786 4.06295C16.0997 3.96408 16.1212 3.75831 16.062 3.6247C15.9921 3.46971 15.8602 3.39221 15.6934 3.37885C14.7112 3.29067 13.729 3.20248 12.7468 3.1143C12.6042 3.10094 12.4643 3.09025 12.3216 3.07689C12.4508 3.17576 12.58 3.27196 12.7118 3.37084C12.3512 2.47296 11.9933 1.57509 11.6328 0.677212C11.5816 0.548945 11.5305 0.423349 11.4794 0.295081C11.3987 0.0946628 11.2103 -0.0469663 10.9816 0.0144954C10.7878 0.0679403 10.6183 0.30577 10.699 0.508861C11.0596 1.40674 11.4175 2.30461 11.7781 3.20248C11.8292 3.33075 11.8803 3.45635 11.9315 3.58462C12.0041 3.76366 12.1252 3.86253 12.3216 3.87856C13.3038 3.96675 14.286 4.05493 15.2682 4.14312C15.4108 4.15648 15.5508 4.16717 15.6934 4.18053C15.5992 3.95339 15.5023 3.72357 15.4081 3.49643C14.6466 4.11907 13.8851 4.73903 13.1235 5.36166C13.0132 5.45252 12.9029 5.5407 12.7926 5.63156C12.6822 5.72241 12.658 5.89076 12.6876 6.0217C12.911 6.96501 13.137 7.90831 13.3603 8.85161C13.3926 8.98522 13.4222 9.11616 13.4545 9.24978C13.651 9.10013 13.8501 8.94781 14.0465 8.79817C13.2419 8.2851 12.4374 7.77202 11.6355 7.25895C11.5197 7.1868 11.404 7.11198 11.291 7.03983C11.1753 6.96501 11.0004 6.96501 10.8847 7.03983C10.0801 7.5529 9.27551 8.06597 8.47361 8.57904C8.3579 8.65119 8.24219 8.72602 8.12917 8.79817C8.32561 8.94781 8.52474 9.10013 8.72117 9.24978C8.94452 8.30647 9.17056 7.36317 9.39391 6.41987C9.4262 6.28626 9.4558 6.15532 9.48809 6.0217C9.51769 5.89076 9.49616 5.72241 9.38314 5.63156C8.62161 5.00892 7.86008 4.38896 7.09854 3.76633C6.98821 3.67547 6.87788 3.58729 6.76756 3.49643C6.67337 3.72357 6.5765 3.95339 6.48232 4.18053C7.46451 4.09234 8.4467 4.00416 9.42889 3.91597C9.57151 3.90261 9.71144 3.89192 9.85406 3.87856C10.0505 3.85986 10.1716 3.76366 10.2442 3.58462C10.6048 2.68674 10.9627 1.78887 11.3233 0.890992C11.3744 0.762724 11.4256 0.637129 11.4767 0.508861C11.5547 0.313787 11.3906 0.0599236 11.1941 0.0144954C10.9654 -0.0362773 10.7851 0.086646 10.7017 0.295081Z" fill="#AAAAAA"/>
</svg>
