<svg width="23" height="22" viewBox="0 0 23 22" fill="none" xmlns="http://www.w3.org/2000/svg">
<path d="M19.5091 0H3.49103C1.56887 0 0 1.56286 0 3.47747V14.1065C0 15.9639 1.47038 17.4858 3.31044 17.5759V21.029C3.31044 21.3399 3.49116 21.6263 3.77044 21.7654C3.88545 21.8145 4.00866 21.8472 4.13188 21.8472C4.31259 21.8472 4.49331 21.7818 4.64116 21.6672L7.81176 19.1716C9.10963 18.1488 10.7442 17.5842 12.3955 17.5842H19.509C21.4311 17.5842 23 16.0213 23 14.1067V3.47768C23 1.56299 21.4312 0 19.5091 0ZM11.5001 11.3981H6.57147C6.11967 11.3981 5.75003 11.0299 5.75003 10.5798C5.75003 10.1298 6.11967 9.76157 6.57147 9.76157H11.5001C11.9519 9.76157 12.3215 10.1298 12.3215 10.5798C12.3215 11.0299 11.9519 11.3981 11.5001 11.3981ZM16.4287 7.83052H6.57147C6.11967 7.83052 5.75003 7.46232 5.75003 7.01228C5.75003 6.55406 6.11967 6.19403 6.57147 6.19403H16.4287C16.8805 6.19403 17.2501 6.55406 17.2501 7.01228C17.2501 7.46232 16.8805 7.83052 16.4287 7.83052Z" fill="#AAAAAA"/>
</svg>
