<svg width="40" height="40" viewBox="0 0 40 40" fill="none" xmlns="http://www.w3.org/2000/svg">
<circle cx="20" cy="20" r="20" fill="url(#paint0_linear_7415_7702)"/>
<path d="M13.5287 28.667V26.2191L20.1954 19.7868C22.0964 17.8857 23.086 16.766 23.086 15.1774C23.086 13.4326 21.7058 12.3128 19.8569 12.3128C17.9037 12.3128 16.6537 13.5368 16.6798 15.4378H13.4506C13.4246 11.8701 16.1069 9.55241 19.8829 9.55241C23.7371 9.55241 26.3412 11.8441 26.3412 15.0212C26.3412 17.1566 25.2996 18.8753 21.6016 22.3649L18.2423 25.6982V25.8285H26.6277V28.667H13.5287Z" fill="white"/>
<circle cx="19.9999" cy="19.9997" r="17.8333" stroke="white" stroke-width="1.66667"/>
<defs>
<linearGradient id="paint0_linear_7415_7702" x1="20" y1="0" x2="20" y2="40" gradientUnits="userSpaceOnUse">
<stop stop-color="#01BAA6"/>
<stop offset="0.25" stop-color="#2EC4B6"/>
<stop offset="0.5" stop-color="#51B8D8"/>
<stop offset="0.75" stop-color="#5F87FF"/>
<stop offset="1" stop-color="#1C64CA"/>
</linearGradient>
</defs>
</svg>
