<svg width="21" height="22" viewBox="0 0 21 22" fill="none" xmlns="http://www.w3.org/2000/svg">
<path fill-rule="evenodd" clip-rule="evenodd" d="M10.5 10.4483C11.5752 10.4483 12.6263 10.1418 13.5203 9.56775C14.4143 8.99367 15.111 8.17774 15.5224 7.22313C15.9339 6.26852 16.0415 5.21812 15.8317 4.20474C15.6219 3.19136 15.104 2.26053 14.3437 1.52995C13.5834 0.799373 12.6147 0.301864 11.5601 0.100336C10.5055 -0.101192 9.41244 0.00231212 8.41908 0.39776C7.42573 0.793209 6.5767 1.46284 5.97938 2.32197C5.38206 3.18111 5.06327 4.19116 5.06332 5.2244C5.06499 6.60946 5.63834 7.93732 6.65756 8.91666C7.67679 9.896 9.05866 10.4468 10.5 10.4483ZM0 16.8165V21.001C0.000133781 21.2254 0.0929193 21.4405 0.25798 21.5991C0.423041 21.7578 0.646882 21.847 0.880347 21.8472H20.1197C20.3531 21.847 20.577 21.7578 20.742 21.5991C20.9071 21.4405 20.9999 21.2254 21 21.001V16.8165C20.9983 15.339 20.3867 13.9225 19.2995 12.8777C18.2122 11.8329 16.7381 11.2452 15.2006 11.2436H5.79943C4.26188 11.2453 2.78782 11.833 1.70061 12.8778C0.613394 13.9225 0.00180507 15.339 0 16.8165Z" fill="#AAAAAA"/>
</svg>
