<svg width="23" height="28" viewBox="0 0 23 28" fill="none" xmlns="http://www.w3.org/2000/svg">
<path fill-rule="evenodd" clip-rule="evenodd" d="M19.6011 4.32281L18.3134 7.7502L20.7906 10.4247C21.3598 11.038 20.8913 12.0312 20.0665 11.9933L16.4275 11.8297L14.6541 15.0276C14.2481 15.7607 13.1634 15.6229 12.9449 14.8248L12.9436 14.8251L12.2693 12.3567L1.80719 23.6765C0.974292 24.5795 -0.387091 23.3128 0.443422 22.412L10.9092 11.0884L8.40267 10.5981C7.58822 10.4373 7.38384 9.35925 8.07606 8.90258L8.0756 8.90185L11.1196 6.88718L10.6838 3.25619C10.5847 2.42696 11.5428 1.89791 12.1871 2.41462L12.188 2.41327L15.0332 4.69392L18.3398 3.14916C19.1042 2.79297 19.8835 3.56594 19.6011 4.32281Z" fill="#AAAAAA"/>
</svg>
