<svg width="20" height="21" viewBox="0 0 20 21" fill="none" xmlns="http://www.w3.org/2000/svg">
<path d="M1.72662 17.3383H5.96095C6.03289 19.2392 7.63618 21 10 21C12.3535 21 13.9671 19.2492 14.0493 17.3383H18.2734C19.3422 17.3383 20 16.768 20 15.9076C20 14.8371 19.0031 13.9266 18.0678 13.0562C17.3484 12.3659 17.184 11.0052 17.0401 9.64459C17.0298 9.08433 16.9887 8.55407 16.927 8.04383C16.3104 8.29395 15.5396 8.394 14.8818 8.30395C14.9332 8.76417 14.9743 9.25441 14.9846 9.82468C15.0874 11.7256 15.4265 13.1863 16.1254 13.9767C16.629 14.5369 17.2045 15.0672 17.4717 15.3573V15.4774H2.50771V15.3573C2.77492 15.0672 3.37102 14.5369 3.87461 13.9767C4.58376 13.1863 4.91264 11.7256 5.01542 9.82468C5.13875 5.81277 6.40288 4.45212 8.05755 4.03192C8.31449 3.96189 8.4481 3.84183 8.46865 3.5717C8.53032 2.56122 9.10586 1.8809 10 1.8809C10.1747 1.8809 10.3289 1.90091 10.4728 1.95093C10.6578 1.34064 10.9866 0.790376 11.4183 0.330157C10.9969 0.120057 10.5242 0 10 0C8.46865 0 7.32785 1.01048 6.93731 2.34111C4.25488 3.28156 3.12436 5.80276 2.9702 9.57456C2.83659 10.9852 2.66187 12.3659 1.93217 13.0562C0.996917 13.9266 0 14.8371 0 15.9076C0 16.768 0.65776 17.3383 1.72662 17.3383ZM15.1387 7.00333C17.0709 7.00333 18.6845 5.44259 18.6845 3.55169C18.6845 1.66079 17.0709 0.100048 15.1387 0.100048C13.1963 0.100048 11.593 1.66079 11.593 3.55169C11.593 5.44259 13.1963 7.00333 15.1387 7.00333ZM10 19.3892C8.83864 19.3892 8.00617 18.5788 7.93422 17.3383H12.0761C12.0144 18.5688 11.1716 19.3892 10 19.3892Z" fill="#464752"/>
</svg>
