<svg width="27" height="26" viewBox="0 0 27 26" fill="none" xmlns="http://www.w3.org/2000/svg">
<path d="M26.5954 13.1157C26.0305 13.7747 25.0708 13.868 24.397 13.3495V23.8837C24.397 25.0529 23.4572 26 22.297 26H19.037C17.8768 26 16.937 25.0529 16.937 23.8837V18.4017C16.937 17.2337 15.996 16.2854 14.837 16.2854H12.1628C11.0039 16.2854 10.0629 17.2337 10.0629 18.4017V23.8837C10.0629 25.0529 9.12306 26 7.96291 26H4.70287C3.54273 26 2.6029 25.0529 2.6029 23.8837V13.3495C1.92908 13.8679 0.969336 13.7746 0.404505 13.1157C-0.188465 12.4248 -0.121656 11.3714 0.55333 10.7644L11.7833 0.662523C12.7654 -0.220841 14.2349 -0.220841 15.2168 0.662523L26.4468 10.7644C27.1218 11.3714 27.1884 12.4248 26.5954 13.1157Z" fill="#AAAAAA"/>
</svg>
