<svg width="14" height="14" viewBox="0 0 14 14" fill="none" xmlns="http://www.w3.org/2000/svg">
<circle cx="7" cy="7" r="7" fill="#32BEA6"/>
<path d="M3.70707 6.29293C3.51181 6.09767 3.19522 6.09767 2.99996 6.29293C2.8047 6.48819 2.8047 6.80478 2.99996 7.00004L3.35352 6.64648L3.70707 6.29293ZM3.35352 6.64648L2.99996 7.00004L5.99996 10L6.35352 9.64648L6.70707 9.29293L3.70707 6.29293L3.35352 6.64648Z" fill="white"/>
<path d="M11 5.00004C11.1953 4.80478 11.1953 4.48819 11 4.29293C10.8048 4.09767 10.4882 4.09767 10.2929 4.29293L10.6465 4.64648L11 5.00004ZM5.64648 9.64648L6.00004 10L11 5.00004L10.6465 4.64648L10.2929 4.29293L5.29293 9.29293L5.64648 9.64648Z" fill="white"/>
</svg>
