<svg width="14" height="14" viewBox="0 0 14 14" fill="none" xmlns="http://www.w3.org/2000/svg">
<path d="M4.66637 5.54167H6.9997M4.66637 7.58333H8.7497M7.29137 11.6667C10.0298 11.6667 12.2497 9.44675 12.2497 6.70833C12.2497 3.96992 10.0298 1.75 7.29137 1.75C4.55296 1.75 2.33303 3.96992 2.33303 6.70833C2.33303 7.2625 2.42394 7.79543 2.59167 8.29302C2.65478 8.48028 2.68634 8.57391 2.69203 8.64583C2.69765 8.71687 2.6934 8.76667 2.67583 8.83572C2.65804 8.90565 2.61875 8.97837 2.54017 9.12381L1.58604 10.8899C1.44994 11.1418 1.38189 11.2677 1.39712 11.365C1.41039 11.4496 1.46022 11.5242 1.53338 11.5688C1.61739 11.62 1.75979 11.6053 2.0446 11.5759L5.03186 11.2671C5.12233 11.2577 5.16756 11.2531 5.20879 11.2546C5.24933 11.2562 5.27796 11.26 5.3175 11.2691C5.35771 11.2784 5.40826 11.2979 5.50937 11.3368C6.0624 11.5499 6.66325 11.6667 7.29137 11.6667Z" stroke="#666666" stroke-width="1.16667" stroke-linecap="round" stroke-linejoin="round"/>
</svg>
