<svg width="14" height="14" viewBox="0 0 14 14" fill="none" xmlns="http://www.w3.org/2000/svg">
<path d="M9.91678 1.16699V7.58366M12.8334 5.71699V3.03366C12.8334 2.38026 12.8334 2.05357 12.7063 1.804C12.5944 1.58448 12.416 1.406 12.1964 1.29415C11.9469 1.16699 11.6202 1.16699 10.9668 1.16699H4.73562C3.88309 1.16699 3.45682 1.16699 3.11253 1.323C2.80909 1.46049 2.5512 1.68174 2.36917 1.96074C2.16263 2.27731 2.09781 2.69861 1.96818 3.54123L1.66305 5.52456C1.49207 6.63592 1.40658 7.1916 1.5715 7.62398C1.71625 8.00348 1.98849 8.32081 2.34157 8.52158C2.74384 8.75033 3.30606 8.75033 4.43049 8.75033H4.90011C5.22681 8.75033 5.39016 8.75033 5.51494 8.81391C5.6247 8.86983 5.71394 8.95907 5.76987 9.06883C5.83345 9.19361 5.83345 9.35696 5.83345 9.68366V11.3953C5.83345 12.1897 6.47744 12.8337 7.27185 12.8337C7.46133 12.8337 7.63304 12.7221 7.71 12.5489L9.67044 8.13793C9.7596 7.9373 9.80419 7.83699 9.87466 7.76344C9.93695 7.69842 10.0135 7.6487 10.0982 7.61818C10.194 7.58366 10.3038 7.58366 10.5233 7.58366H10.9668C11.6202 7.58366 11.9469 7.58366 12.1964 7.4565C12.416 7.34465 12.5944 7.16617 12.7063 6.94665C12.8334 6.69708 12.8334 6.37039 12.8334 5.71699Z" stroke="#666666" stroke-width="1.16667" stroke-linecap="round" stroke-linejoin="round"/>
</svg>
