<svg width="40" height="40" viewBox="0 0 40 40" fill="none" xmlns="http://www.w3.org/2000/svg">
<path d="M18.8043 5.75561C19.1885 4.97738 19.3806 4.58826 19.6413 4.46394C19.8682 4.35577 20.1317 4.35577 20.3586 4.46394C20.6193 4.58826 20.8114 4.97738 21.1956 5.75561L24.84 13.1389C24.9534 13.3686 25.0101 13.4835 25.093 13.5727C25.1664 13.6517 25.2544 13.7157 25.3521 13.7611C25.4625 13.8125 25.5893 13.831 25.8428 13.868L33.9949 15.0596C34.8534 15.1851 35.2826 15.2478 35.4812 15.4575C35.6541 15.6399 35.7353 15.8906 35.7024 16.1397C35.6646 16.426 35.3539 16.7287 34.7324 17.334L28.8357 23.0774C28.6518 23.2565 28.5599 23.346 28.5006 23.4525C28.4481 23.5468 28.4144 23.6504 28.4014 23.7576C28.3868 23.8786 28.4085 24.0051 28.4518 24.258L29.8432 32.3703C29.9899 33.2259 30.0633 33.6537 29.9254 33.9076C29.8054 34.1285 29.5922 34.2834 29.345 34.3292C29.061 34.3819 28.6768 34.1798 27.9084 33.7758L20.6205 29.9431C20.3935 29.8237 20.2799 29.764 20.1603 29.7406C20.0544 29.7198 19.9455 29.7198 19.8396 29.7406C19.72 29.764 19.6064 29.8237 19.3793 29.9431L12.0915 33.7758C11.3231 34.1798 10.9389 34.3819 10.6549 34.3292C10.4077 34.2834 10.1945 34.1285 10.0745 33.9076C9.93659 33.6537 10.01 33.2259 10.1567 32.3703L11.5481 24.258C11.5914 24.0051 11.6131 23.8786 11.5985 23.7576C11.5855 23.6504 11.5518 23.5468 11.4993 23.4525C11.44 23.346 11.348 23.2565 11.1642 23.0774L5.26752 17.334C4.64602 16.7287 4.33528 16.426 4.29746 16.1397C4.26456 15.8906 4.34584 15.6399 4.51867 15.4575C4.71731 15.2478 5.14654 15.1851 6.00499 15.0596L14.1571 13.868C14.4106 13.831 14.5374 13.8125 14.6478 13.7611C14.7455 13.7157 14.8335 13.6517 14.9069 13.5727C14.9898 13.4835 15.0465 13.3686 15.1599 13.1389L18.8043 5.75561Z" fill="#E0E0E0" stroke="#666666" stroke-linecap="round" stroke-linejoin="round"/>
<mask id="mask0_7342_6910" style="mask-type:alpha" maskUnits="userSpaceOnUse" x="0" y="0" width="40" height="40">
<path d="M18.8043 5.75561C19.1885 4.97738 19.3806 4.58826 19.6413 4.46394C19.8682 4.35577 20.1317 4.35577 20.3586 4.46394C20.6193 4.58826 20.8114 4.97738 21.1956 5.75561L24.84 13.1389C24.9534 13.3686 25.0101 13.4835 25.093 13.5727C25.1664 13.6517 25.2544 13.7157 25.3521 13.7611C25.4625 13.8125 25.5893 13.831 25.8428 13.868L33.9949 15.0596C34.8534 15.1851 35.2826 15.2478 35.4812 15.4575C35.6541 15.6399 35.7353 15.8906 35.7024 16.1397C35.6646 16.426 35.3539 16.7287 34.7324 17.334L28.8357 23.0774C28.6518 23.2565 28.5599 23.346 28.5006 23.4525C28.4481 23.5468 28.4144 23.6504 28.4014 23.7576C28.3868 23.8786 28.4085 24.0051 28.4518 24.258L29.8432 32.3703C29.9899 33.2259 30.0633 33.6537 29.9254 33.9076C29.8054 34.1285 29.5922 34.2834 29.345 34.3292C29.061 34.3819 28.6768 34.1798 27.9084 33.7758L20.6205 29.9431C20.3935 29.8237 20.2799 29.764 20.1603 29.7406C20.0544 29.7198 19.9455 29.7198 19.8396 29.7406C19.72 29.764 19.6064 29.8237 19.3793 29.9431L12.0915 33.7758C11.3231 34.1798 10.9389 34.3819 10.6549 34.3292C10.4077 34.2834 10.1945 34.1285 10.0745 33.9076C9.93659 33.6537 10.01 33.2259 10.1567 32.3703L11.5481 24.258C11.5914 24.0051 11.6131 23.8786 11.5985 23.7576C11.5855 23.6504 11.5518 23.5468 11.4993 23.4525C11.44 23.346 11.348 23.2565 11.1642 23.0774L5.26752 17.334C4.64602 16.7287 4.33528 16.426 4.29746 16.1397C4.26456 15.8906 4.34584 15.6399 4.51867 15.4575C4.71731 15.2478 5.14654 15.1851 6.00499 15.0596L14.1571 13.868C14.4106 13.831 14.5374 13.8125 14.6478 13.7611C14.7455 13.7157 14.8335 13.6517 14.9069 13.5727C14.9898 13.4835 15.0465 13.3686 15.1599 13.1389L18.8043 5.75561Z" fill="#E0E0E0"/>
</mask>
<g mask="url(#mask0_7342_6910)">
<rect x="2" width="18" height="36" fill="#FFB900"/>
</g>
</svg>
