<svg width="14" height="14" viewBox="0 0 14 14" fill="none" xmlns="http://www.w3.org/2000/svg">
<path d="M4.08317 12.8337V6.41699M1.1665 7.58366V11.667C1.1665 12.3113 1.68884 12.8337 2.33317 12.8337H10.1651C11.0289 12.8337 11.7635 12.2035 11.8948 11.3498L12.523 7.26643C12.6861 6.20635 11.8659 5.25033 10.7934 5.25033H8.74984C8.42767 5.25033 8.1665 4.98916 8.1665 4.66699V2.6054C8.1665 1.81099 7.52251 1.16699 6.7281 1.16699C6.53862 1.16699 6.36691 1.27858 6.28995 1.45173L4.23713 6.07057C4.14351 6.28123 3.9346 6.41699 3.70408 6.41699H2.33317C1.68884 6.41699 1.1665 6.93933 1.1665 7.58366Z" stroke="#666666" stroke-width="1.16667" stroke-linecap="round" stroke-linejoin="round"/>
</svg>
