<svg width="40" height="40" viewBox="0 0 40 40" fill="none" xmlns="http://www.w3.org/2000/svg">
<circle cx="20" cy="20" r="20" fill="url(#paint0_linear_7415_7663)"/>
<path d="M19.9871 28.9274C15.9506 28.9274 13.086 26.7399 13.0079 23.5628H16.4194C16.5235 25.0732 18.0339 26.0628 19.9871 26.0628C22.0704 26.0628 23.5548 24.917 23.5548 23.2503C23.5548 21.5576 22.0964 20.3337 19.6485 20.3337H17.9558V17.7295H19.6485C21.6537 17.7295 23.06 16.6097 23.0339 14.9691C23.06 13.3805 21.8621 12.3128 20.0131 12.3128C18.2423 12.3128 16.7058 13.3024 16.6537 14.891H13.3985C13.4766 11.7139 16.3412 9.55241 20.0391 9.55241C23.8673 9.55241 26.3412 11.8962 26.3152 14.7868C26.3412 16.8962 24.935 18.4326 22.8777 18.8493V19.0055C25.5339 19.3701 27.0444 21.0628 27.0183 23.4326C27.0444 26.6097 24.0756 28.9274 19.9871 28.9274Z" fill="white"/>
<circle cx="19.9999" cy="19.9997" r="17.8333" stroke="white" stroke-width="1.66667"/>
<defs>
<linearGradient id="paint0_linear_7415_7663" x1="20" y1="0" x2="20" y2="40" gradientUnits="userSpaceOnUse">
<stop stop-color="#FFB900"/>
<stop offset="0.25" stop-color="#FFAA33"/>
<stop offset="0.495192" stop-color="#FF8C69"/>
<stop offset="0.75" stop-color="#FF6CD0"/>
<stop offset="1" stop-color="#A31597"/>
</linearGradient>
</defs>
</svg>
